<?xml version="1.0" encoding="utf-8"?>
<!-- Generator: Adobe Illustrator 24.0.0, SVG Export Plug-In . SVG Version: 6.00 Build 0)  -->
<svg version="1.1" id="Capa_1" xmlns="http://www.w3.org/2000/svg" xmlns:xlink="http://www.w3.org/1999/xlink" x="0px" y="0px"
	 viewBox="0 0 250 100" style="enable-background:new 0 0 250 100;" xml:space="preserve">
<style type="text/css">
	.st0{clip-path:url(#SVGID_2_);}
</style>
<g>
	<g>
		<defs>
			<path id="SVGID_1_" d="M22.94,24.03c1.93-1.12,3.86-2.23,5.8-3.35c3.3-1.9,5.35-4.91,5.92-8.67c0.67-4.42,4.49-7.81,9.1-7.81
				s8.43,3.39,9.1,7.81c0.57,3.76,2.62,6.77,5.92,8.67c1.93,1.12,3.86,2.23,5.8,3.35c2.64,1.52,5.54,1.74,8.37,0.63
				c0.87-0.34,1.83-0.53,2.82-0.53c4.28,0,7.75,3.47,7.75,7.75c0,2.45-1.14,4.63-2.91,6.05c-2.37,1.9-3.63,4.52-3.63,7.56v10.36
				c0,2.97,1.19,5.52,3.46,7.42c1.59,1.33,2.6,3.33,2.6,5.57c0,4.01-3.25,7.27-7.27,7.27c-0.87,0-1.71-0.16-2.49-0.44
				c-2.79-1.02-5.59-0.77-8.16,0.71c-2.72,1.57-5.44,3.14-8.16,4.71c-2.73,1.58-4.4,4.11-4.78,7.24c-0.5,4.2-4.08,7.46-8.42,7.46
				c-4.68,0-8.48-3.8-8.48-8.48c0-4.68,3.8-8.48,8.48-8.48c1.18,0,2.31,0.24,3.33,0.68c2.9,1.24,5.93,1.06,8.66-0.52
				c2.72-1.57,5.44-3.14,8.16-4.71c2.57-1.48,4.18-3.79,4.7-6.72c0.3-1.72,1.21-3.23,2.49-4.3c2.27-1.91,3.46-4.46,3.46-7.42V45.5
				c0-3.04-1.26-5.66-3.63-7.56c-1.48-1.19-2.52-2.91-2.82-4.88c-0.46-3.01-2.1-5.41-4.73-6.94c-1.94-1.12-3.86-2.23-5.8-3.35
				c-3.3-1.9-6.92-2.18-10.47-0.79c-1.04,0.41-2.17,0.63-3.35,0.63c-1.18,0-2.31-0.22-3.35-0.63c-3.54-1.38-7.17-1.11-10.47,0.79
				c-1.93,1.12-3.86,2.23-5.8,3.35c-2.64,1.52-4.28,3.92-4.73,6.94c-0.57,3.72-3.78,6.58-7.66,6.58C7.47,39.63,4,36.16,4,31.88
				c0-4.28,3.47-7.75,7.75-7.75c0.99,0,1.95,0.19,2.82,0.53C17.41,25.77,20.31,25.55,22.94,24.03 M19.06,69.34
				c1.74-7.06,14.5-9.77,20.6-7.58c1.28,0.46,2.66,0.71,4.1,0.71c6.69,0,12.11-5.42,12.11-12.11c0-6.69-5.42-12.11-12.11-12.11
				c-5.95,0-10.91,4.3-11.92,9.96c-1.18,6.56-10.37,16.63-17.44,13.87c-0.82-0.32-1.71-0.49-2.64-0.49c-4.01,0-7.27,3.25-7.27,7.27
				c0,2.03,0.83,3.86,2.17,5.18l0.09,0.09c0.17,0.16,0.34,0.32,0.52,0.46c0.16,0.13,0.31,0.26,0.45,0.39L7.65,74.9
				c0.61,0.42,1.28,0.75,2.01,0.97c2.31,0.7,4.76,0.2,6.59-1.22l-0.09,0.08l0.19-0.16c0.69-0.55,1.28-1.23,1.75-2.04
				C18.68,71.52,18.99,70.43,19.06,69.34z"/>
		</defs>
		<use xlink:href="#SVGID_1_"  style="overflow:visible;fill-rule:evenodd;clip-rule:evenodd;"/>
		<clipPath id="SVGID_2_">
			<use xlink:href="#SVGID_1_"  style="overflow:visible;"/>
		</clipPath>
		<rect x="4" y="4.2" class="st0" width="79.52" height="91.61"/>
	</g>
	<path d="M234.22,56.82V43.18h2.53v5.63h6.72v-5.63H246v13.64h-2.53V51h-6.72v5.82H234.22z M230.08,56.25
		c-1.18,0.45-2.51,0.67-4,0.67c-4.9,0-7.35-2.37-7.35-7.1c0-4.48,2.45-6.73,7.35-6.73c1.49,0,2.83,0.22,4,0.67v2.29
		c-1.18-0.51-2.45-0.76-3.82-0.76c-3.27,0-4.91,1.51-4.91,4.53c0,3.27,1.64,4.91,4.91,4.91c1.37,0,2.64-0.25,3.82-0.76V56.25z
		 M214.98,43.18v2.18h-6.83v3.44h6.5v2.26h-6.53v3.57h6.99v2.19h-9.47V43.18H214.98z M202.46,43.18v2.19h-3.91v11.45h-2.53V45.37
		h-3.91v-2.19H202.46z M185.03,43.18v2.18h-6.83v3.44h6.51v2.26h-6.53v3.57h6.99v2.19h-9.47V43.18H185.03z M172.5,43.18l-5.98,13.64
		h-2.72l-5.72-13.64h3l4.23,10.45l4.22-10.45H172.5z M154.9,43.18v13.64h-2.53V43.18H154.9z M149.18,43.18v2.19h-3.91v11.45h-2.53
		V45.37h-3.91v-2.19H149.18z M126.44,56.82h-2.59l5.79-13.64h2.72l5.91,13.64h-2.72L134,53.1h-4.53l0.87-2.19h2.75l-2.15-5.12
		L126.44,56.82z M120.82,43.18v2.18h-6.83v3.44h6.5v2.26h-6.53v3.57h6.99v2.19h-9.47V43.18H120.82z M97.09,56.8V43.18h6.2
		c2.78,0,4.18,1.22,4.18,3.66c0,1.64-1.08,3.01-3.25,4.09l4.32,5.9h-3.18l-4.15-5.94v-1.16c2.42-0.41,3.62-1.35,3.62-2.81
		c0-1.01-0.56-1.51-1.7-1.51h-3.46v11.4H97.09z M92.95,56.25c-1.18,0.45-2.51,0.67-4,0.67c-4.9,0-7.35-2.37-7.35-7.1
		c0-4.48,2.45-6.73,7.35-6.73c1.49,0,2.83,0.22,4,0.67v2.29c-1.18-0.51-2.45-0.76-3.82-0.76c-3.27,0-4.91,1.51-4.91,4.53
		c0,3.27,1.64,4.91,4.91,4.91c1.37,0,2.64-0.25,3.82-0.76V56.25z"/>
</g>
</svg>
